<svg xmlns="http://www.w3.org/2000/svg" viewBox="0 0 1024 1024">
  <rect width="1024" height="1024" fill="#111827"/>
  <circle cx="512" cy="512" r="396" fill="#172554"/>
  <path
    fill="#59CBE8"
    d="M735.7 596.3v149.3h-74.7V596.3h74.7ZM362.7 596.3v149.3h-37.3c-20.5 0-37.3-16.8-37.3-37.3V596.3h74.7ZM549.3 111.9c-185.5 0-335.8 150.2-335.8 335.8v261.2c0 61.9 50 111.9 111.9 111.9h111.9V522.6H288.1V448c0-144.4 116.8-261.2 261.2-261.2S810.5 303.6 810.5 448v74.6H661.1v298.5h149.3v37.3H549.3v74.6h223.9c61.9 0 111.9-50 111.9-111.9V447.7c0-185.5-150.2-335.8-335.8-335.8Z"
    transform="translate(-37.3 0)"
  />
</svg>
